<svg xmlns="http://www.w3.org/2000/svg" viewBox="0 0 512 512"><path d="M512 256c0 141.385-114.615 256-256 256-41.179 0-80.081-9.718-114.552-26.99a256.906 256.906 0 01-53.311-35.725C34.137 402.348 0 333.155 0 256 0 114.615 114.615 0 256 0c53.039 0 102.296 16.123 143.161 43.739a256.785 256.785 0 0127.397 21.358C478.992 111.971 512 180.13 512 256z" fill="#fa474c"/><path fill="#43b581" d="M219.727 187.941L208.783 98.36l-19.361 41.249-65.286-28.996 28.996 65.286-41.249 19.361 89.581 10.944"/><path d="M512 256c0 141.385-114.615 256-256 256-41.179 0-80.081-9.718-114.552-26.99a256.906 256.906 0 01-53.311-35.725c-7.847-10.459-14.566-21.87-19.895-34.22C11.818 284.39 82.411 225.74 166.849 197.538a69.983 69.983 0 0044.21-44.21C237.046 75.504 288.904 9.446 399.161 43.739a256.785 256.785 0 0127.397 21.358C478.992 111.971 512 180.13 512 256z" fill="#e42800"/><path d="M512 256c0 141.385-114.615 256-256 256-41.179 0-80.081-9.718-114.552-26.99a172.252 172.252 0 01-3.291-2.226c-18.745-12.957-34.095-28.139-45.871-45.359a157.059 157.059 0 01-14.566-26.457c-15.747-36.436-21.964-68.901-18.495-96.465 2.988-23.677 13.302-44.492 30.668-61.858 18.463-18.463 45.453-33.708 80.227-45.317a83.248 83.248 0 008.108-3.218 80.98 80.98 0 0023.239-16.165 80.537 80.537 0 0015.642-22.152 78.905 78.905 0 003.741-9.195c11.609-34.774 26.854-61.764 45.317-80.217 17.366-17.377 38.181-27.69 61.858-30.668 26.112-3.291 56.613 2.111 90.729 16.06 1.902.773 3.814 1.578 5.747 2.414.69.303 1.379.596 2.058.909C478.992 111.971 512 180.13 512 256z" fill="#f43d2f"/><path d="M512 256c0 141.385-114.615 256-256 256-41.179 0-80.081-9.718-114.552-26.99a172.252 172.252 0 01-3.291-2.226c-18.745-12.957-34.095-28.139-45.871-45.359 1.066.543 2.132 1.087 3.208 1.63 34.471 17.272 73.373 26.99 114.552 26.99 141.385 0 256-114.615 256-256 0-55.265-17.512-106.433-47.292-148.271 1.902.773 3.814 1.578 5.747 2.414.69.303 1.379.596 2.058.909C478.992 111.971 512 180.13 512 256z" fill="#db342c"/><path d="M398.691 411.47c0 1.546-.303 3.114-.951 4.608-3.657 8.474-8.944 16.206-15.726 22.977-14.002 14.002-34.513 24.377-59.34 30.03-26.384 6.008-55.453 6.29-84.093.815a216.664 216.664 0 01-17.45-4.096c-20.114-5.642-38.567-14.085-54.094-24.806-19.895-13.751-34.252-30.626-42.695-50.166-11.912-27.606-17-51.806-14.712-69.987 1.557-12.382 6.855-22.946 16.185-32.277 3.835-3.835 12.089-8.84 21.912-14.043 23.249-12.319 52.287-1.818 61.753 22.737 4.629 11.995 11.901 23.416 21.786 33.301 15.903 15.903 35.777 25.057 55.63 27.272 35.997 4.012 70.217 17.021 99.098 38.149a196.677 196.677 0 018.495 6.572 11.513 11.513 0 014.202 8.914zm83.926-102.316c-5.653 24.827-16.039 45.338-30.03 59.329a76.242 76.242 0 01-10.857 9.038 71.627 71.627 0 01-12.131 6.698c-4.723 2.048-10.261.731-13.521-3.25a195.82 195.82 0 01-7.325-9.529c-20.689-28.662-33.437-62.495-37.397-98.064-2.205-19.853-11.368-39.727-27.272-55.63-9.885-9.885-21.305-17.168-33.301-21.786-24.545-9.467-35.056-38.504-22.737-61.764 5.204-9.812 10.209-18.066 14.043-21.901 9.331-9.331 19.895-14.629 32.287-16.185 18.181-2.288 42.381 2.8 69.977 14.712 19.55 8.443 36.425 22.81 50.176 42.695a159.206 159.206 0 017.722 12.372c9.812 17.429 17.053 37.616 21.18 59.183 5.477 28.64 5.195 57.709-.814 84.082z" fill="#e42800"/><path d="M333.762 142.356c-3.074 3.074-7.856 3.868-11.768 1.998-3.776-1.806-6.13-5.88-5.816-10.056.337-4.476 3.631-8.28 7.996-9.289 4.026-.932 8.356.737 10.728 4.118 2.846 4.057 2.369 9.72-1.14 13.229z" fill="#f96862"/><path d="M398.691 411.47c0 1.546-.303 3.114-.951 4.608-3.657 8.474-8.944 16.206-15.726 22.977-14.002 14.002-34.513 24.377-59.34 30.03-26.384 6.008-55.453 6.29-84.093.815a216.664 216.664 0 01-17.45-4.096c63.77-2.717 121.49-28.756 164.864-69.82a196.677 196.677 0 018.495 6.572 11.515 11.515 0 014.201 8.914zm83.926-102.316c-5.653 24.827-16.039 45.338-30.03 59.329a76.242 76.242 0 01-10.857 9.038 71.627 71.627 0 01-12.131 6.698c-4.723 2.048-10.261.731-13.521-3.25a195.82 195.82 0 01-7.325-9.529c35.83-44.032 57.292-100.216 57.292-161.395 0-15.057-1.296-29.811-3.793-44.157 9.812 17.429 17.053 37.616 21.18 59.183 5.476 28.641 5.194 57.71-.815 84.083z" fill="#cc2105"/><path d="M443.488 324.212c-5.382-1.858-8.251-7.734-6.393-13.116 1.858-5.394 7.734-8.25 13.122-6.398 5.388 1.863 8.249 7.733 6.386 13.122a10.298 10.298 0 01-2.447 3.929 10.329 10.329 0 01-10.668 2.463zm9.193-31.889c-5.674-.556-9.822-5.601-9.266-11.274.561-5.669 5.607-9.816 11.281-9.261 5.674.556 9.816 5.607 9.26 11.281a10.287 10.287 0 01-2.969 6.28 10.286 10.286 0 01-8.306 2.974zm1.986-33.135c-5.674.522-10.703-3.654-11.224-9.328-.521-5.674 3.659-10.697 9.333-11.219 5.674-.522 10.697 3.648 11.224 9.328l-.006-.006a10.282 10.282 0 01-2.985 8.249 10.25 10.25 0 01-6.342 2.976zm-4.135-32.938c-5.489 1.527-11.179-1.683-12.706-7.172-1.532-5.484 1.678-11.174 7.172-12.707 5.489-1.527 11.179 1.683 12.706 7.172a10.325 10.325 0 01-2.649 10.069 10.284 10.284 0 01-4.523 2.638zm-10.057-31.643c-5.046 2.644-11.281.696-13.924-4.35-2.644-5.056-.696-11.292 4.355-13.93 5.045-2.644 11.281-.696 13.924 4.35a10.329 10.329 0 01-1.835 12.083 10.214 10.214 0 01-2.52 1.847zm-16.731-28.719c-4.08 3.967-10.613 3.879-14.587-.208-3.974-4.086-3.878-10.613.208-14.587s10.618-3.884 14.592.203c3.934 4.057 3.884 10.506-.101 14.491-.034.034-.073.062-.112.101zm-38.416-16.404c-5.253-2.201-7.728-8.244-5.522-13.503 2.206-5.259 8.256-7.728 13.503-5.522 5.259 2.206 7.734 8.251 5.522 13.503a10.293 10.293 0 01-2.216 3.306c-2.874 2.872-7.308 3.894-11.287 2.216zm-29.527-9.412c-5.601-1.077-9.26-6.488-8.188-12.083 1.077-5.59 6.488-9.26 12.083-8.177l.005-.006c5.59 1.077 9.249 6.488 8.177 12.083a10.315 10.315 0 01-2.829 5.344 10.294 10.294 0 01-9.248 2.839zm82.17 210.434c-3.077 3.077-7.853 3.864-11.77 1.996-3.783-1.805-6.117-5.881-5.814-10.054.325-4.474 3.635-8.282 7.991-9.293 4.026-.935 8.361.744 10.734 4.12 2.852 4.051 2.363 9.727-1.141 13.231zM155.88 320.238c-3.071 3.071-7.86 3.871-11.768 1.998-3.767-1.806-6.14-5.883-5.816-10.056.347-4.479 3.625-8.276 7.996-9.289 4.02-.932 8.365.728 10.731 4.115 2.839 4.064 2.371 9.717-1.143 13.232zm175.462 122.843c-5.388 1.863-11.264-1.004-13.116-6.393-1.858-5.382.999-11.259 6.393-13.117 5.382-1.858 11.259 1.01 13.116 6.393a10.321 10.321 0 01-2.464 10.669 10.26 10.26 0 01-3.929 2.448zm-34.756 7.346c-5.669.561-10.713-3.586-11.275-9.255-.556-5.674 3.592-10.72 9.26-11.281 5.674-.556 10.72 3.591 11.276 9.266a10.286 10.286 0 01-2.975 8.306 10.258 10.258 0 01-6.286 2.964zm-35.094.051a10.322 10.322 0 01-9.328-11.225c.521-5.674 5.544-9.855 11.219-9.333 5.674.521 9.85 5.551 9.328 11.224a10.256 10.256 0 01-2.975 6.341 10.308 10.308 0 01-8.244 2.993zm-34.426-6.297c-5.494-1.532-8.705-7.222-7.167-12.712 1.527-5.489 7.217-8.699 12.706-7.172 5.484 1.532 8.694 7.223 7.167 12.712a10.266 10.266 0 01-2.632 4.518 10.329 10.329 0 01-10.074 2.654zm-32.865-12.874c-5.046-2.644-6.993-8.879-4.35-13.924 2.637-5.051 8.873-6.999 13.93-4.355 5.046 2.644 6.992 8.879 4.35 13.924a10.21 10.21 0 01-1.846 2.52 10.331 10.331 0 01-12.084 1.835zm-29.381-20.873c-4.086-3.974-4.175-10.506-.203-14.592 3.974-4.086 10.501-4.181 14.587-.208 4.086 3.974 4.175 10.506.203 14.592l-.101.101c-3.986 3.985-10.44 4.041-14.486.107zm-7.335-25.126c-5.247 2.206-11.297-.263-13.503-5.522-2.206-5.247.27-11.303 5.522-13.503 5.253-2.211 11.304.27 13.509 5.517 1.673 3.985.651 8.419-2.223 11.292a10.316 10.316 0 01-3.305 2.216zm-12.073-30.952c-5.595 1.072-11.006-2.587-12.078-8.183-1.084-5.595 2.587-11.006 8.177-12.083 5.601-1.077 11.006 2.587 12.089 8.183a10.321 10.321 0 01-2.845 9.255 10.3 10.3 0 01-5.343 2.828zm218.617 70.092c-3.077 3.077-7.854 3.863-11.77 1.996-3.776-1.802-6.126-5.883-5.814-10.054.335-4.475 3.628-8.281 7.991-9.293 4.018-.933 8.373.736 10.735 4.119 2.838 4.062 2.371 9.72-1.142 13.232zM217.11 165.799l68.245 68.245c10.663 10.663 10.663 27.938 0 38.602-10.658 10.658-27.932 10.658-38.596-.005l-68.532-68.532a80.643 80.643 0 0023.235-16.164 80.446 80.446 0 0015.648-22.146z" fill="#f96862"/></svg>